<svg width="324" height="569" viewBox="0 0 324 569" fill="none" xmlns="http://www.w3.org/2000/svg">
<g filter="url(#filter0_d)">
<rect width="316" height="560.573" transform="translate(4)" fill="#242A60"/>
<g filter="url(#filter1_d)">
<path d="M91.516 287.741C94.0093 287.375 95.8698 286.581 97.0974 285.358C98.3487 284.132 98.8508 282.675 98.6036 280.989C98.4261 279.778 97.9607 278.755 97.2075 277.919C96.4781 277.08 95.6187 276.43 94.6293 275.969C93.6365 275.484 92.6216 275.014 91.5847 274.559C90.5716 274.102 89.5952 273.481 88.6555 272.697C87.7159 271.913 87.0319 270.97 86.6036 269.868C84.3487 269.544 82.7272 268.411 81.7392 266.47C81.3631 265.725 81.1124 264.925 80.9871 264.07C80.8618 263.215 80.8618 262.305 80.9873 261.341C81.2654 259.432 81.954 257.924 83.053 256.817L83.5283 257.33C82.5306 258.301 81.9078 259.678 81.6598 261.46C81.5476 262.35 81.549 263.187 81.6639 263.97C81.7787 264.754 82.0071 265.485 82.349 266.162C83.1731 267.812 84.5191 268.803 86.3871 269.136C86.3013 268.882 86.2184 268.482 86.1383 267.935C85.6823 264.825 86.4412 262.142 88.4151 259.888C90.389 257.634 93.0026 256.268 96.2558 255.791C98.393 255.478 100.188 255.809 101.641 256.785C102.883 257.646 103.614 258.824 103.833 260.32C104.049 261.792 103.738 263.148 102.901 264.386C102.06 265.601 100.797 266.332 99.1108 266.579C98.1847 266.715 97.3987 266.648 96.7528 266.379C95.6776 267.483 94.3384 268.358 92.7353 269.006C93.2764 269.387 94.5024 270.057 96.4135 271.013C98.3482 271.967 99.8248 272.939 100.843 273.93C101.882 274.893 102.509 276.111 102.725 277.583C103.122 280.291 102.387 282.642 100.521 284.638C98.6786 286.63 96.1426 287.863 92.9131 288.336C89.7074 288.806 87.1809 288.449 85.3335 287.265C83.7312 286.262 82.8012 284.883 82.5436 283.125C82.2895 281.392 82.6299 279.826 83.565 278.428C84.5203 277.002 85.8409 276.166 87.5269 275.918C89.2129 275.671 90.5153 275.868 91.434 276.51C92.3493 277.128 92.8853 277.971 93.042 279.039C93.1986 280.108 93.0054 281.107 92.4624 282.035C91.9431 282.96 91.161 283.499 90.1162 283.653C89.0713 283.806 88.1915 283.595 87.4766 283.021C86.8231 282.534 86.3981 281.869 86.2016 281.025C86.143 280.791 86.1221 280.648 86.1389 280.597L86.8209 280.534C86.919 281.368 87.2812 282.019 87.9074 282.485C88.4317 282.917 89.1212 283.071 89.9761 282.945C90.8547 282.817 91.5048 282.37 91.9262 281.604C92.3512 280.863 92.4992 280.053 92.3704 279.174C92.2381 278.272 91.8233 277.593 91.1258 277.137C90.3362 276.55 89.1815 276.367 87.6618 276.59C86.142 276.813 84.9653 277.555 84.1315 278.818C83.2943 280.056 82.9889 281.447 83.2152 282.991C83.4449 284.558 84.281 285.794 85.7234 286.698C86.5808 287.251 87.4222 287.613 88.2476 287.783C89.0967 287.95 90.1862 287.936 91.516 287.741ZM93.9786 262.347C93.8254 261.302 93.9596 260.397 94.3811 259.632C94.8263 258.863 95.5119 258.411 96.438 258.275C98.029 258.042 98.9533 258.804 99.2109 260.561C99.4651 262.295 98.8385 264.06 97.3313 265.858C97.8886 266.019 98.4521 266.057 99.022 265.974C100.494 265.758 101.6 265.111 102.339 264.032C103.075 262.93 103.349 261.737 103.161 260.455C102.97 259.149 102.333 258.114 101.251 257.351C99.9342 256.477 98.326 256.179 96.4263 256.458C94.5266 256.736 92.9797 257.436 91.7857 258.557C89.9356 260.332 89.1811 262.383 89.5223 264.71C89.8043 266.634 90.6508 267.941 92.0619 268.631C93.6007 268.042 94.979 267.185 96.1967 266.061C94.9617 265.247 94.2223 264.009 93.9786 262.347ZM96.4964 258.922C95.784 259.026 95.266 259.381 94.9424 259.986C94.6425 260.588 94.5587 261.34 94.691 262.243C94.9173 263.786 95.5764 264.89 96.6684 265.555C97.3076 264.952 97.8021 264.188 98.1517 263.263C98.5013 262.339 98.6152 261.461 98.4933 260.63C98.3018 259.324 97.6362 258.754 96.4964 258.922ZM114.379 269.726C113.808 269.3 113.469 268.731 113.365 268.019C113.261 267.307 113.421 266.665 113.847 266.093C114.269 265.497 114.836 265.147 115.548 265.043C115.762 265.011 116.042 265.019 116.388 265.065C115.815 264.3 114.912 264.008 113.677 264.189C112.442 264.37 111.465 265.314 110.744 267.021C110.024 268.727 109.891 271.124 110.343 274.211C110.5 275.279 110.854 276.04 111.405 276.493C111.977 276.918 112.631 277.077 113.367 276.969C114.103 276.861 114.747 276.621 115.299 276.249C115.875 275.874 116.313 275.47 116.613 275.038C116.91 274.582 117.158 274.121 117.357 273.656C117.717 272.802 117.881 272.269 117.85 272.055L118.533 272.246C118.517 272.636 118.378 273.178 118.116 273.872C117.85 274.541 117.534 275.109 117.165 275.576C116.797 276.042 116.223 276.514 115.445 276.992C114.662 277.447 113.76 277.749 112.739 277.898C110.816 278.18 109.289 277.943 108.16 277.187C107.05 276.404 106.379 275.216 106.146 273.625C105.732 270.8 106.108 268.489 107.276 266.692C108.464 264.869 110.269 263.779 112.691 263.424C114.33 263.184 115.649 263.415 116.65 264.117C117.65 264.82 118.25 265.847 118.448 267.201C118.573 268.056 118.408 268.747 117.952 269.275C117.519 269.799 116.959 270.112 116.27 270.213C115.581 270.314 114.951 270.151 114.379 269.726ZM119.692 263.708C120.279 262.748 121.107 262.19 122.176 262.034C123.268 261.874 124.151 262.023 124.825 262.482C125.499 262.941 125.909 263.67 126.055 264.667L126.086 264.881C126.827 262.492 128.053 261.172 129.763 260.921C131.591 260.653 132.645 261.469 132.923 263.369C133.038 264.153 132.899 265.022 132.505 265.977C132.111 266.932 131.713 267.852 131.309 268.736C130.901 269.596 130.743 270.335 130.833 270.952L129.978 271.078C129.849 270.199 130.186 268.937 130.988 267.291C131.789 265.645 132.131 264.419 132.013 263.612C131.891 262.78 131.643 262.247 131.269 262.011C130.915 261.747 130.417 261.662 129.776 261.756C129.159 261.847 128.581 262.21 128.044 262.847C127.53 263.48 127.133 264.242 126.851 265.132C126.391 266.461 126.111 267.533 126.012 268.348L126.018 268.384L125.774 275.66L121.5 276.286L121.924 262.798C121.222 262.974 120.677 263.393 120.289 264.057L119.692 263.708ZM147.891 272.745C145.801 273.051 144.528 272.304 144.07 270.504C143.293 272.485 142.109 273.593 140.518 273.826C138.927 274.059 137.587 273.77 136.498 272.96C135.429 272.122 134.767 270.836 134.513 269.103C134.116 266.396 134.47 264.173 135.573 262.435C136.677 260.696 138.285 259.672 140.399 259.362C142.132 259.108 143.404 259.758 144.214 261.313C144.228 260.584 144.255 259.852 144.293 259.119C146.05 258.861 147.345 258.598 148.179 258.331L148.627 258.156L148.143 271.98C148.845 271.805 149.39 271.385 149.778 270.722L150.375 271.071C149.788 272.03 148.96 272.588 147.891 272.745ZM138.805 270.329C138.961 271.398 139.202 272.127 139.525 272.516C139.87 272.878 140.327 273.017 140.896 272.933C141.466 272.85 142.003 272.456 142.506 271.752C143.171 270.829 143.651 269.716 143.945 268.412C143.971 268.092 143.993 267.337 144.013 266.146C144.053 264.927 144.088 263.927 144.119 263.147C143.915 262.255 143.551 261.508 143.026 260.905C142.501 260.303 141.918 260.049 141.277 260.143C140.114 260.314 139.329 261.496 138.923 263.69C138.513 265.86 138.474 268.073 138.805 270.329ZM159.689 270.979C158.597 271.139 157.694 271.017 156.979 270.612L156.751 276.503L152.513 277.125L153.125 257.97C152.423 258.145 151.878 258.565 151.49 259.228L150.893 258.879C151.48 257.92 152.296 257.363 153.341 257.21C154.409 257.053 155.279 257.193 155.949 257.628C156.616 258.04 157.041 258.705 157.224 259.624C158.008 257.69 159.207 256.605 160.822 256.368C162.437 256.131 163.739 256.413 164.73 257.214C165.717 257.991 166.327 259.175 166.561 260.766C166.971 263.568 166.535 265.888 165.252 267.726C163.966 269.539 162.111 270.624 159.689 270.979ZM157.02 269.151C157.556 269.994 158.382 270.334 159.498 270.17C160.638 270.003 161.484 268.909 162.037 266.887C162.613 264.862 162.708 262.532 162.321 259.896C162.161 258.804 161.933 258.073 161.636 257.704C161.363 257.332 160.93 257.189 160.336 257.276C159.743 257.363 159.178 257.81 158.641 258.616C158.128 259.419 157.776 260.162 157.585 260.845C157.391 261.504 157.3 261.881 157.314 261.976L157.279 261.981L157.02 269.151ZM115.108 314.724C115.63 318.286 117.126 320.468 119.597 321.27C120.177 321.258 120.93 321.184 121.856 321.048C122.806 320.909 123.777 320.585 124.77 320.075C125.763 319.566 126.506 319.008 126.999 318.402C128.046 317.109 128.665 316.035 128.856 315.183L128.955 314.622L129.709 314.803C129.623 315.374 129.395 316.05 129.025 316.832C128.654 317.614 128.197 318.299 127.652 318.889C127.132 319.474 126.319 320.054 125.215 320.629C124.138 321.223 122.899 321.623 121.498 321.828C118.506 322.267 116.051 321.741 114.135 320.252C112.242 318.758 111.065 316.433 110.602 313.274C109.972 308.976 110.842 305.235 113.213 302.049C115.584 298.863 119.025 296.94 123.537 296.278C125.627 295.972 127.19 296.131 128.228 296.755C129.262 297.355 129.896 298.451 130.129 300.042C130.285 301.111 129.956 302.505 129.141 304.226C128.414 305.885 128.113 307.141 128.239 307.996L127.455 308.111C127.385 307.636 127.405 307.112 127.515 306.538C127.625 305.964 127.734 305.548 127.842 305.289C127.949 305.031 128.148 304.565 128.437 303.892C129.158 302.355 129.452 301.136 129.32 300.233C129.042 298.334 128.082 297.249 126.442 296.98C125.671 296.851 124.882 296.845 124.074 296.964C123.267 297.082 122.419 297.255 121.531 297.482C120.738 297.865 119.993 298.326 119.296 298.865C118.619 299.377 117.939 300.119 117.257 301.092C116.571 302.042 116.026 303.116 115.619 304.316C115.213 305.515 114.949 307.022 114.826 308.835C114.701 310.624 114.794 312.587 115.108 314.724ZM139.001 316.497C137.173 316.765 135.718 316.518 134.636 315.755C133.55 314.968 132.906 313.886 132.704 312.508C132.499 311.107 132.444 309.903 132.538 308.894C132.653 307.859 132.93 306.848 133.367 305.862C133.801 304.852 134.55 304.003 135.613 303.313C136.7 302.62 138.099 302.148 139.808 301.898C141.542 301.644 142.951 301.91 144.037 302.697C145.143 303.456 145.812 304.632 146.046 306.223C146.442 308.93 146.038 311.221 144.834 313.095C143.653 314.966 141.709 316.1 139.001 316.497ZM136.896 313.058C137.175 314.958 137.86 315.828 138.953 315.667C140.069 315.504 140.915 314.409 141.491 312.384C142.088 310.332 142.193 307.988 141.807 305.352C141.514 303.358 140.822 302.44 139.729 302.601C138.661 302.757 137.809 303.816 137.175 305.777C136.561 307.71 136.468 310.137 136.896 313.058ZM155.415 312.454C155.166 312.902 154.792 313.333 154.295 313.746C153.821 314.155 153.157 314.422 152.302 314.547C151.447 314.673 150.683 314.506 150.009 314.047C149.335 313.587 148.925 312.859 148.779 311.862C148.751 311.672 148.73 311.36 148.715 310.925L149.15 297.763C149.233 295.349 149.569 293.59 150.159 292.485C150.773 291.376 151.697 290.731 152.932 290.55C153.787 290.425 154.534 290.643 155.174 291.204C155.838 291.761 156.266 292.693 156.457 293.999C156.649 295.305 156.412 297.244 155.746 299.816C155.103 302.384 154.864 304.226 155.028 305.343L154.386 305.437C154.202 304.178 154.438 302.312 155.094 299.839C155.747 297.342 155.97 295.393 155.765 293.992C155.64 293.137 155.33 292.43 154.836 291.872C154.365 291.31 153.845 291.071 153.275 291.155C153.342 291.776 153.334 294.615 153.25 299.672C153.187 304.703 153.074 309.389 152.91 313.73C153.575 313.633 154.142 313.198 154.611 312.426C155.08 311.654 155.382 310.906 155.519 310.182L155.754 309.056L156.437 309.247C156.414 309.59 156.296 310.105 156.081 310.791C155.887 311.451 155.665 312.005 155.415 312.454ZM165.329 311C165.079 311.449 164.706 311.88 164.208 312.292C163.735 312.701 163.07 312.969 162.215 313.094C161.361 313.219 160.596 313.052 159.923 312.593C159.249 312.134 158.839 311.406 158.693 310.408C158.665 310.218 158.643 309.906 158.628 309.472L159.064 296.31C159.146 293.896 159.483 292.137 160.073 291.031C160.686 289.923 161.611 289.278 162.845 289.097C163.7 288.971 164.448 289.189 165.088 289.75C165.752 290.308 166.179 291.24 166.371 292.546C166.562 293.852 166.325 295.791 165.659 298.363C165.017 300.931 164.778 302.773 164.941 303.889L164.3 303.983C164.115 302.725 164.351 300.859 165.008 298.385C165.66 295.888 165.884 293.939 165.678 292.538C165.553 291.683 165.243 290.977 164.749 290.419C164.279 289.857 163.759 289.618 163.189 289.701C163.255 290.322 163.247 293.161 163.164 298.219C163.101 303.249 162.987 307.935 162.823 312.277C163.488 312.18 164.055 311.745 164.524 310.973C164.993 310.2 165.296 309.453 165.432 308.729L165.668 307.603L166.35 307.794C166.328 308.137 166.209 308.652 165.995 309.338C165.8 309.997 165.578 310.551 165.329 311ZM174.574 296.801C177.59 296.359 179.274 297.337 179.625 299.735C179.845 301.231 179.299 302.476 177.99 303.468C176.7 304.433 174.751 305.119 172.142 305.526C172.22 306.388 172.296 307.068 172.369 307.567C172.525 308.635 172.879 309.396 173.431 309.849C174.003 310.274 174.657 310.433 175.393 310.325C176.129 310.217 176.773 309.977 177.325 309.605C177.9 309.23 178.338 308.826 178.639 308.394C178.936 307.938 179.184 307.477 179.382 307.012C179.742 306.158 179.907 305.625 179.875 305.411L180.558 305.602C180.543 305.992 180.404 306.534 180.142 307.228C179.876 307.897 179.559 308.465 179.191 308.932C178.823 309.398 178.249 309.87 177.47 310.348C176.688 310.802 175.786 311.104 174.765 311.254C172.841 311.536 171.315 311.299 170.185 310.543C169.076 309.76 168.405 308.572 168.171 306.981C167.757 304.156 168.134 301.844 169.302 300.048C170.466 298.228 172.224 297.146 174.574 296.801ZM178.735 299.866C178.62 299.082 178.289 298.476 177.741 298.047C177.213 297.591 176.486 297.43 175.56 297.566C174.657 297.698 173.847 298.375 173.129 299.596C172.434 300.814 172.101 302.512 172.129 304.691C176.899 303.968 179.1 302.359 178.735 299.866ZM190.562 301.006C189.99 300.581 189.652 300.012 189.548 299.299C189.443 298.587 189.604 297.945 190.029 297.373C190.452 296.778 191.019 296.428 191.731 296.323C191.945 296.292 192.225 296.299 192.571 296.346C191.998 295.581 191.094 295.289 189.86 295.47C188.625 295.651 187.647 296.594 186.927 298.301C186.207 300.007 186.073 302.404 186.526 305.491C186.683 306.56 187.037 307.32 187.588 307.773C188.16 308.199 188.814 308.358 189.55 308.25C190.286 308.142 190.93 307.902 191.482 307.53C192.058 307.154 192.496 306.751 192.796 306.318C193.093 305.863 193.341 305.402 193.54 304.936C193.9 304.083 194.064 303.549 194.033 303.336L194.716 303.527C194.7 303.917 194.561 304.459 194.299 305.152C194.033 305.822 193.716 306.39 193.348 306.856C192.98 307.322 192.406 307.795 191.627 308.273C190.845 308.727 189.943 309.029 188.922 309.179C186.999 309.461 185.472 309.224 184.343 308.467C183.233 307.684 182.562 306.497 182.329 304.906C181.914 302.08 182.291 299.769 183.459 297.973C184.647 296.149 186.452 295.06 188.874 294.705C190.513 294.464 191.832 294.695 192.833 295.398C193.833 296.1 194.432 297.128 194.631 298.481C194.756 299.336 194.591 300.028 194.134 300.555C193.702 301.08 193.141 301.392 192.453 301.493C191.764 301.594 191.134 301.432 190.562 301.006ZM197.729 293.734L197.918 288.321C199.675 288.064 200.971 287.801 201.805 287.533L202.252 287.358C202.163 289.069 202.068 290.987 201.968 293.113L206.384 292.465L206.407 293.117L201.955 293.769C201.666 300.07 201.613 303.849 201.798 305.108C201.909 305.868 202.368 306.189 203.176 306.07C203.983 305.952 204.644 305.333 205.16 304.215C205.675 303.096 205.988 301.923 206.099 300.693L206.771 300.813C206.443 304.694 204.901 306.836 202.147 307.24C201.007 307.407 200.012 307.238 199.161 306.732C198.307 306.202 197.799 305.379 197.635 304.263C197.468 303.123 197.483 299.834 197.68 294.396L195.935 294.652L195.912 294L197.729 293.734ZM214.623 305.411C212.794 305.679 211.339 305.431 210.257 304.668C209.171 303.881 208.528 302.799 208.326 301.422C208.12 300.021 208.065 298.816 208.16 297.808C208.275 296.772 208.551 295.762 208.989 294.776C209.423 293.766 210.171 292.916 211.235 292.227C212.322 291.534 213.72 291.062 215.43 290.811C217.163 290.557 218.573 290.824 219.658 291.611C220.764 292.37 221.434 293.545 221.667 295.136C222.064 297.844 221.66 300.134 220.455 302.009C219.274 303.88 217.33 305.014 214.623 305.411ZM212.518 301.972C212.796 303.872 213.482 304.741 214.574 304.581C215.69 304.418 216.536 303.323 217.113 301.298C217.709 299.246 217.814 296.902 217.428 294.266C217.136 292.271 216.443 291.354 215.351 291.514C214.282 291.671 213.431 292.73 212.796 294.69C212.182 296.624 212.09 299.051 212.518 301.972ZM223.077 291C223.664 290.041 224.491 289.483 225.56 289.326C226.652 289.166 227.535 289.316 228.209 289.775C228.883 290.234 229.293 290.962 229.439 291.96L229.47 292.173C230.212 289.784 231.437 288.465 233.147 288.214C234.975 287.946 236.029 288.762 236.307 290.662C236.422 291.445 236.283 292.315 235.889 293.27C235.496 294.225 235.097 295.145 234.693 296.029C234.285 296.889 234.127 297.628 234.217 298.245L233.362 298.37C233.234 297.492 233.57 296.229 234.372 294.584C235.174 292.938 235.515 291.712 235.397 290.904C235.275 290.073 235.027 289.539 234.653 289.303C234.299 289.04 233.801 288.955 233.16 289.049C232.543 289.14 231.965 289.503 231.428 290.14C230.915 290.773 230.517 291.535 230.235 292.425C229.775 293.754 229.495 294.826 229.397 295.641L229.402 295.676L229.159 302.952L224.884 303.579L225.308 290.091C224.606 290.267 224.061 290.686 223.674 291.349L223.077 291Z" fill="#FBF1F1"/>
</g>
</g>
<defs>
<filter id="filter0_d" x="0" y="0" width="324" height="568.573" filterUnits="userSpaceOnUse" color-interpolation-filters="sRGB">
<feFlood flood-opacity="0" result="BackgroundImageFix"/>
<feColorMatrix in="SourceAlpha" type="matrix" values="0 0 0 0 0 0 0 0 0 0 0 0 0 0 0 0 0 0 127 0" result="hardAlpha"/>
<feOffset dy="4"/>
<feGaussianBlur stdDeviation="2"/>
<feComposite in2="hardAlpha" operator="out"/>
<feColorMatrix type="matrix" values="0 0 0 0 0 0 0 0 0 0 0 0 0 0 0 0 0 0 0.25 0"/>
<feBlend mode="normal" in2="BackgroundImageFix" result="effect1_dropShadow"/>
<feBlend mode="normal" in="SourceGraphic" in2="effect1_dropShadow" result="shape"/>
</filter>
<filter id="filter1_d" x="76.8931" y="255.677" width="163.453" height="74.3009" filterUnits="userSpaceOnUse" color-interpolation-filters="sRGB">
<feFlood flood-opacity="0" result="BackgroundImageFix"/>
<feColorMatrix in="SourceAlpha" type="matrix" values="0 0 0 0 0 0 0 0 0 0 0 0 0 0 0 0 0 0 127 0" result="hardAlpha"/>
<feOffset dy="4"/>
<feGaussianBlur stdDeviation="2"/>
<feComposite in2="hardAlpha" operator="out"/>
<feColorMatrix type="matrix" values="0 0 0 0 0 0 0 0 0 0 0 0 0 0 0 0 0 0 0.25 0"/>
<feBlend mode="normal" in2="BackgroundImageFix" result="effect1_dropShadow"/>
<feBlend mode="normal" in="SourceGraphic" in2="effect1_dropShadow" result="shape"/>
</filter>
</defs>
</svg>
